<svg width="1653" height="993" xmlns="http://www.w3.org/2000/svg" xmlns:xlink="http://www.w3.org/1999/xlink" overflow="hidden"><defs><clipPath id="clip0"><rect x="1727" y="557" width="1653" height="993"/></clipPath><clipPath id="clip1"><rect x="1728" y="558" width="1650" height="990"/></clipPath><clipPath id="clip2"><rect x="1728" y="558" width="1650" height="990"/></clipPath><clipPath id="clip3"><rect x="1838" y="608" width="1493" height="732"/></clipPath><clipPath id="clip4"><rect x="1838" y="608" width="1493" height="732"/></clipPath><clipPath id="clip5"><rect x="1728" y="558" width="1650" height="990"/></clipPath><clipPath id="clip6"><rect x="1728" y="558" width="1650" height="990"/></clipPath><clipPath id="clip7"><rect x="1728" y="558" width="1650" height="990"/></clipPath><clipPath id="clip8"><rect x="1728" y="558" width="1650" height="990"/></clipPath><clipPath id="clip9"><rect x="1728" y="558" width="1650" height="990"/></clipPath><clipPath id="clip10"><rect x="1728" y="558" width="1650" height="990"/></clipPath><clipPath id="clip11"><rect x="1728" y="558" width="1650" height="990"/></clipPath><clipPath id="clip12"><rect x="1728" y="558" width="1650" height="990"/></clipPath><clipPath id="clip13"><rect x="1728" y="558" width="1650" height="990"/></clipPath><clipPath id="clip14"><rect x="1728" y="558" width="1650" height="990"/></clipPath><clipPath id="clip15"><rect x="1728" y="558" width="1650" height="990"/></clipPath><clipPath id="clip16"><rect x="1728" y="558" width="1650" height="990"/></clipPath><clipPath id="clip17"><rect x="1728" y="558" width="1650" height="990"/></clipPath><clipPath id="clip18"><rect x="1728" y="558" width="1650" height="990"/></clipPath><clipPath id="clip19"><rect x="1728" y="558" width="1650" height="990"/></clipPath><clipPath id="clip20"><rect x="1728" y="558" width="1650" height="990"/></clipPath><clipPath id="clip21"><rect x="1728" y="558" width="1650" height="990"/></clipPath><clipPath id="clip22"><rect x="1728" y="558" width="1650" height="990"/></clipPath><clipPath id="clip23"><rect x="1728" y="558" width="1650" height="990"/></clipPath><clipPath id="clip24"><rect x="1728" y="558" width="1650" height="990"/></clipPath></defs><g clip-path="url(#clip0)" transform="translate(-1727 -557)"><rect x="1728" y="558" width="1650" height="990" fill="#FFFFFF"/><g clip-path="url(#clip1)"><path d="M1838.5 1245.54 3327.5 1245.54M1838.5 1154.54 3327.5 1154.54M1838.5 1063.54 3327.5 1063.54M1838.5 972.532 3327.5 972.532M1838.5 881.529 3327.5 881.529M1838.5 790.526 3327.5 790.526M1838.5 699.523 3327.5 699.523M1838.5 608.5 3327.5 608.5" stroke="#D9D9D9" stroke-width="3.4375" stroke-linejoin="round" stroke-miterlimit="10" fill="none"/></g><g clip-path="url(#clip2)"><path d="M1838.5 1337.5 3327.5 1337.5" stroke="#D9D9D9" stroke-width="3.4375" stroke-linejoin="round" stroke-miterlimit="10" fill="none" fill-rule="evenodd"/></g><g clip-path="url(#clip3)"><path d="M1945 882.029 2157.07 882.029 2370.08 864 2583.08 864 2796.09 900.029 3009.1 918 3222 900.029" stroke="#4472C4" stroke-width="10.3125" stroke-linecap="round" stroke-linejoin="round" stroke-miterlimit="10" fill="none"/></g><g clip-path="url(#clip4)"><path d="M1945 718.024 2157.07 718.024 2370.08 682 2583.08 700.023 2796.09 809 3009.1 754.025 3222 754.025" stroke="#ED7D31" stroke-width="10.3125" stroke-linecap="round" stroke-linejoin="round" stroke-miterlimit="10" fill="none"/></g><g clip-path="url(#clip5)"><text fill="#595959" font-family="Calibri,Calibri_MSFontService,sans-serif" font-weight="400" font-size="41" transform="matrix(1 0 0 1 1779.07 1349)">0</text></g><g clip-path="url(#clip6)"><text fill="#595959" font-family="Calibri,Calibri_MSFontService,sans-serif" font-weight="400" font-size="41" transform="matrix(1 0 0 1 1779.07 1258)">5</text></g><g clip-path="url(#clip7)"><text fill="#595959" font-family="Calibri,Calibri_MSFontService,sans-serif" font-weight="400" font-size="41" transform="matrix(1 0 0 1 1758.17 1167)">10</text></g><g clip-path="url(#clip8)"><text fill="#595959" font-family="Calibri,Calibri_MSFontService,sans-serif" font-weight="400" font-size="41" transform="matrix(1 0 0 1 1758.17 1075)">15</text></g><g clip-path="url(#clip9)"><text fill="#595959" font-family="Calibri,Calibri_MSFontService,sans-serif" font-weight="400" font-size="41" transform="matrix(1 0 0 1 1758.17 984)">20</text></g><g clip-path="url(#clip10)"><text fill="#595959" font-family="Calibri,Calibri_MSFontService,sans-serif" font-weight="400" font-size="41" transform="matrix(1 0 0 1 1758.17 893)">25</text></g><g clip-path="url(#clip11)"><text fill="#595959" font-family="Calibri,Calibri_MSFontService,sans-serif" font-weight="400" font-size="41" transform="matrix(1 0 0 1 1758.17 802)">30</text></g><g clip-path="url(#clip12)"><text fill="#595959" font-family="Calibri,Calibri_MSFontService,sans-serif" font-weight="400" font-size="41" transform="matrix(1 0 0 1 1758.17 711)">35</text></g><g clip-path="url(#clip13)"><text fill="#595959" font-family="Calibri,Calibri_MSFontService,sans-serif" font-weight="400" font-size="41" transform="matrix(1 0 0 1 1758.17 620)">40</text></g><g clip-path="url(#clip14)"><text fill="#595959" font-family="Calibri,Calibri_MSFontService,sans-serif" font-weight="400" font-size="41" transform="matrix(1 0 0 1 1923.74 1402)">19</text></g><g clip-path="url(#clip15)"><text fill="#595959" font-family="Calibri,Calibri_MSFontService,sans-serif" font-weight="400" font-size="41" transform="matrix(1 0 0 1 2136.56 1402)">20</text></g><g clip-path="url(#clip16)"><text fill="#595959" font-family="Calibri,Calibri_MSFontService,sans-serif" font-weight="400" font-size="41" transform="matrix(1 0 0 1 2349.38 1402)">21</text></g><g clip-path="url(#clip17)"><text fill="#595959" font-family="Calibri,Calibri_MSFontService,sans-serif" font-weight="400" font-size="41" transform="matrix(1 0 0 1 2562.2 1402)">22</text></g><g clip-path="url(#clip18)"><text fill="#595959" font-family="Calibri,Calibri_MSFontService,sans-serif" font-weight="400" font-size="41" transform="matrix(1 0 0 1 2775.01 1402)">23</text></g><g clip-path="url(#clip19)"><text fill="#595959" font-family="Calibri,Calibri_MSFontService,sans-serif" font-weight="400" font-size="41" transform="matrix(1 0 0 1 2987.83 1402)">24</text></g><g clip-path="url(#clip20)"><text fill="#595959" font-family="Calibri,Calibri_MSFontService,sans-serif" font-weight="400" font-size="41" transform="matrix(1 0 0 1 3200.65 1402)">25</text></g><g clip-path="url(#clip21)"><path d="M2362 1482 2450 1482" stroke="#4472C4" stroke-width="10.3125" stroke-linecap="round" stroke-linejoin="round" stroke-miterlimit="10" fill="none" fill-rule="evenodd"/></g><g clip-path="url(#clip22)"><text fill="#595959" font-family="Yu Gothic,Yu Gothic_MSFontService,sans-serif" font-weight="400" font-size="41" transform="matrix(1 0 0 1 2459.76 1494)">最低</text></g><g clip-path="url(#clip23)"><path d="M2581 1482 2669 1482" stroke="#ED7D31" stroke-width="10.3125" stroke-linecap="round" stroke-linejoin="round" stroke-miterlimit="10" fill="none" fill-rule="evenodd"/></g><g clip-path="url(#clip24)"><text fill="#595959" font-family="Yu Gothic,Yu Gothic_MSFontService,sans-serif" font-weight="400" font-size="41" transform="matrix(1 0 0 1 2677.93 1494)">最高</text></g><rect x="1728.5" y="558.5" width="1650" height="990" stroke="#D9D9D9" stroke-width="3.4375" stroke-linejoin="round" stroke-miterlimit="10" fill="none"/></g></svg>